<?xml version="1.0" encoding="utf-8"?>
<svg xmlns="http://www.w3.org/2000/svg" xmlns:xlink="http://www.w3.org/1999/xlink" id="Layer_1" width="20px" height="20px" x="0px" y="0px" style="enable-background:new 0 0 20 20" version="1.1" viewBox="0 0 20 20" xml:space="preserve">
    <title>
        20-interactive
    </title>
    <path d="M10,20C4.5,20,0,15.5,0,10S4.5,0,10,0s10,4.5,10,10S15.5,20,10,20z M10,2c-4.4,0-8,3.6-8,8s3.6,8,8,8s8-3.6,8-8S14.4,2,10,2
	z"/>
    <path d="M10,16c-3.3,0-6-2.7-6-6s2.7-6,6-6s6,2.7,6,6S13.3,16,10,16z M10,6c-2.2,0-4,1.8-4,4s1.8,4,4,4s4-1.8,4-4S12.2,6,10,6z"/>
    <path d="M10,8L10,8c1.1,0,2,0.9,2,2l0,0c0,1.1-0.9,2-2,2l0,0c-1.1,0-2-0.9-2-2l0,0C8,8.9,8.9,8,10,8z"/>
</svg>
